<svg width="48" height="48" viewBox="0 0 48 48" fill="none" xmlns="http://www.w3.org/2000/svg">
<path d="M31.7798 0H3.66042C2.67019 0.0224691 1.73031 0.378985 1.04501 0.992081C0.359703 1.60518 -0.0156534 2.42531 0.000500612 3.27429V44.7257C-0.0156534 45.5747 0.359703 46.3948 1.04501 47.0079C1.73031 47.621 2.67019 47.9775 3.66042 48H44.3396C45.3298 47.9775 46.2697 47.621 46.955 47.0079C47.6403 46.3948 48.0157 45.5747 47.9995 44.7257V13.5771L31.7798 0ZM31.1799 4.26857L43.1796 14.3829H31.1799V4.26857ZM4.00042 44.5714V3.42857H27.9999V17.1429H43.9996V44.5714H4.00042Z" fill="#4C4332"/>
</svg>
