<svg width="31" height="48" viewBox="0 0 31 48" fill="none" xmlns="http://www.w3.org/2000/svg">
<path d="M15.5 22.8C14.0318 22.8 12.6238 22.1679 11.5857 21.0426C10.5475 19.9174 9.96429 18.3913 9.96429 16.8C9.96429 15.2087 10.5475 13.6826 11.5857 12.5574C12.6238 11.4321 14.0318 10.8 15.5 10.8C16.9682 10.8 18.3762 11.4321 19.4143 12.5574C20.4525 13.6826 21.0357 15.2087 21.0357 16.8C21.0357 17.5879 20.8925 18.3681 20.6143 19.0961C20.3361 19.8241 19.9284 20.4855 19.4143 21.0426C18.9003 21.5998 18.29 22.0417 17.6184 22.3433C16.9468 22.6448 16.227 22.8 15.5 22.8ZM15.5 0C11.3891 0 7.44666 1.76999 4.53984 4.92061C1.63303 8.07122 0 12.3444 0 16.8C0 29.4 15.5 48 15.5 48C15.5 48 31 29.4 31 16.8C31 12.3444 29.367 8.07122 26.4602 4.92061C23.5533 1.76999 19.6109 0 15.5 0Z" fill="#4C4332"/>
</svg>
