<svg width="49" height="48" viewBox="0 0 49 48" fill="none" xmlns="http://www.w3.org/2000/svg">
<path d="M14.5 0C10.1 0 6.5 5.4 6.5 12C6.5 18.6 10.1 24 14.5 24C18.9 24 22.5 18.6 22.5 12C22.5 5.4 18.9 0 14.5 0ZM14.5 18C12.3 18 10.5 15.3 10.5 12C10.5 8.7 12.3 6 14.5 6C16.7 6 18.5 8.7 18.5 12C18.5 15.3 16.7 18 14.5 18ZM14.5 30C6.7 30 0.5 35.4 0.5 42V48H22.5V42H4.5C4.5 40.2 8.1 36 14.5 36C18.1 36 20.9 37.5 22.5 39V32.4C20.3 30.9 17.5 30 14.5 30ZM44.5 0H30.5C28.3 0 26.5 2.7 26.5 6V42C26.5 45.3 28.3 48 30.5 48H44.5C46.7 48 48.5 45.3 48.5 42V6C48.5 2.7 46.7 0 44.5 0ZM32.5 42H30.5V6H32.5V42ZM44.5 42H36.5V6H44.5V42Z" fill="#4C4332"/>
</svg>
